<svg width="50" height="51" viewBox="0 0 50 51" fill="none" xmlns="http://www.w3.org/2000/svg">
<circle cx="25" cy="25.5" r="25" fill="#FAFAFA"/>
<path d="M16.7744 24.0918H11.2929V25.1894H16.7744V24.0918Z" fill="#41A393"/>
<path d="M19.5186 27.3848H11.2929V28.4824H19.5186V27.3848Z" fill="#41A393"/>
<path d="M31.0372 30.6777H11.2929V31.7754H31.0372V30.6777Z" fill="#41A393"/>
<path d="M14.5858 33.964H11.2929V35.0616H14.5858V33.964Z" fill="#41A393"/>
<path d="M20.0674 33.964H16.7745V35.0616H20.0674V33.964Z" fill="#41A393"/>
<path d="M25.5556 33.964H22.2627V35.0616H25.5556V33.964Z" fill="#41A393"/>
<path d="M30.4884 23.543C30.0868 23.543 29.7187 23.6567 29.3974 23.8442C29.0628 23.6501 28.688 23.543 28.2931 23.543C27.0816 23.543 26.0978 24.5268 26.0978 25.7383C26.0978 26.9497 27.0816 27.9336 28.2931 27.9336C28.688 27.9336 29.0628 27.8265 29.3974 27.6324C29.7187 27.8198 30.0868 27.9336 30.4884 27.9336C31.6998 27.9336 32.6837 26.9497 32.6837 25.7383C32.6837 24.5268 31.6998 23.543 30.4884 23.543ZM28.5742 26.7958C28.4805 26.8225 28.3868 26.8359 28.2931 26.8359C27.6907 26.8359 27.1954 26.3406 27.1954 25.7383C27.1954 25.1359 27.6907 24.6406 28.2931 24.6406C28.3868 24.6406 28.4872 24.6607 28.5742 24.6808C28.4002 24.9953 28.2931 25.3501 28.2931 25.7383C28.2931 26.1265 28.4002 26.4812 28.5742 26.7958ZM30.4884 26.8359C29.886 26.8359 29.3907 26.3406 29.3907 25.7383C29.3907 25.1359 29.886 24.6406 30.4884 24.6406C31.0907 24.6406 31.586 25.1359 31.586 25.7383C31.586 26.3406 31.0907 26.8359 30.4884 26.8359Z" fill="#41A393"/>
<path d="M40.8557 21.0064L17.8453 13.7379C17.6847 13.6843 16.3997 13.2627 15.7839 14.8087L13.8898 20.7989H9.64647C8.73623 20.8056 8 21.5419 8 22.4454V36.7081C8 37.6184 8.73623 38.3546 9.64647 38.3546H33.7813C34.3569 38.3546 34.8589 38.0601 35.1533 37.6117C35.1533 37.6117 35.8963 37.8192 36.0636 37.8192C36.7864 37.8192 37.4156 37.3573 37.6297 36.668L41.9266 23.0679C42.0605 22.6529 42.1542 21.3545 40.8557 21.0064ZM16.1654 17.2316L27.4698 20.7989H20.1812L15.5028 19.3198L16.1654 17.2316ZM15.1749 20.3706L16.5469 20.8056H15.041L15.1749 20.3706ZM34.3301 36.7081H34.3234C34.3234 37.0093 34.0758 37.2569 33.7746 37.2569H9.64647C9.34529 37.2569 9.09765 37.0093 9.09765 36.7081V22.4454C9.09765 22.1442 9.34529 21.8966 9.64647 21.8966H33.7813C34.0825 21.8966 34.3301 22.1442 34.3301 22.4454V36.7081ZM36.5856 36.34C36.4986 36.6211 36.1774 36.7884 35.8963 36.6947L35.4211 36.5475V26.7691L39.2294 27.9738L36.5856 36.34ZM39.5573 26.923L35.4211 25.6179V23.3155L40.2199 24.8281L39.5573 26.923ZM40.8825 22.7399L40.5546 23.784L35.3943 22.1576C35.2537 21.3879 34.5844 20.8056 33.7813 20.8056H31.1108L16.4934 16.1875L16.8213 15.1434C16.9083 14.8623 17.2229 14.695 17.5107 14.7887L40.5211 22.0505C40.9829 22.171 40.9227 22.5994 40.8825 22.7399Z" fill="#41A393"/>
</svg>
